<?xml version="1.0" encoding="UTF-8"?>
<svg id="Logo_s" data-name="Logo&amp;apos;s" xmlns="http://www.w3.org/2000/svg" width="74.2mm" height="61.71mm" viewBox="50 25 110.34 124.92">
  <defs>
    <style>
      .cls-1 {
        stroke-width: 1.5px;
      }

      .cls-1, .cls-2 {
        fill: none;
        stroke-linecap: round;
        stroke-linejoin: round;
      }

      .cls-1, .cls-2, .cls-3 {
        stroke: #56423d;
      }

      .cls-3 {
        stroke-miterlimit: 10;
        stroke-width: .5px;
      }

      .cls-3, .cls-4 {
        fill: #56423d;
      }

      .cls-4 {
        stroke-width: 0px;
      }
    </style>
  </defs>
  <g>
    <path class="cls-4" d="m78.58,121.57h2.49c1.38,0,1.9.72,1.9,1.46,0,.64-.34,1.06-.73,1.24.38.15.89.55.89,1.3,0,.98-.77,1.71-1.98,1.71h-2.58v-5.7Zm2.35,2.25c.59,0,.83-.26.83-.66s-.32-.63-.79-.63h-1.18v1.3h1.14Zm-1.14,2.5h1.11c.67,0,.97-.28.97-.8,0-.46-.3-.75-.98-.75h-1.11v1.55Z"/>
    <path class="cls-4" d="m87.02,127.27v-2.02c0-.06,0-.12-.05-.18l-1.97-3.51h1.4c.44.86,1.01,2,1.3,2.62.25-.6.87-1.8,1.3-2.62h1.29l-1.99,3.49s-.05.07-.05.18v2.03h-1.23Z"/>
    <path class="cls-4" d="m97.27,125.96l-.45,1.32h-1.21l1.94-5.7h1.55l2.02,5.7h-1.3l-.47-1.32h-2.08Zm1.82-1.01c-.4-1.2-.66-1.97-.8-2.49h0c-.14.56-.43,1.46-.75,2.49h1.56Z"/>
    <path class="cls-4" d="m104.06,122.58h-1.73v-1.01h4.69v1.01h-1.73v4.69h-1.23v-4.69Z"/>
    <path class="cls-4" d="m109.89,125.96l-.44,1.32h-1.21l1.94-5.7h1.55l2.02,5.7h-1.3l-.47-1.32h-2.08Zm1.82-1.01c-.4-1.2-.66-1.97-.8-2.49h0c-.14.56-.43,1.46-.75,2.49h1.56Z"/>
    <path class="cls-4" d="m116.13,121.57h1.23v4.69h2.84l-.14,1.01h-3.93v-5.7Z"/>
    <path class="cls-4" d="m123.82,121.57v5.7h-1.23v-5.7h1.23Z"/>
    <path class="cls-4" d="m127.9,125.96l-.44,1.32h-1.21l1.94-5.7h1.55l2.02,5.7h-1.3l-.47-1.32h-2.08Zm1.82-1.01c-.4-1.2-.66-1.97-.8-2.49h0c-.14.56-.43,1.46-.75,2.49h1.56Z"/>
  </g>
  <g>
    <path class="cls-3" d="m33.04,101.41c.13-.04.4-.18.8-.41.13-.07.3-.11.51-.11s.44.08.7.25l.3.04c.28.04.5.07.69.09l.94.07.34.04h0s.08,0,.16,0c.29-.03.51-.05.65-.05.07,0,.18,0,.34.02l1.09.06s.12-.02.31-.09c.04-.02.07-.02.1-.02,0,0,.08.02.21.05.23.02.39.04.47.06.05.02.16.05.31.11.21-.12.38-.18.5-.18.04,0,.23.03.57.1l.25-.05c.17.04.26.05.28.05h.22s.55,0,.55,0l.42-.02h.15c.18.01.27.02.29.02l.34.11.04-.02.1-.21c.17.02.29.03.36.03l.52-.09h.02s.07.15.17.38l.13-.23s.1-.02.29-.02c0,0,.15-.07.42-.2.02-.01.04-.02.05-.02.05,0,.08.02.09.05l.17.38.41-.44.17-.04.2-.08c.09.01.15.06.19.14l-.16.14-.03.13c-.11.05-.17.08-.2.11l-.19.25s-.09.07-.2.12c-.12.06-.24.09-.36.09-.04,0-.1,0-.16-.02-.18-.04-.29-.05-.33-.05-.05,0-.1,0-.15,0-.14.02-.22.03-.25.03-.06,0-.17-.02-.33-.05-.14-.03-.26-.04-.37-.04-.02,0-.22.02-.59.07-.09.01-.18.02-.27.02-.03,0-.32-.02-.87-.05l-.3.05-.5-.29-.23.29-.16-.05-.21-.02-.37-.03-.09.03c-.07.02-.13.03-.2.03h0s-.21-.01-.51-.04c-.07,0-.13,0-.19,0-.08,0-.16.02-.22.05.03.04.05.07.05.07,0,.04-.09.13-.28.29-.03.02-.11.15-.24.38-.02.04-.09.12-.2.27-.09.11-.13.18-.13.22,0,.15.16.28.48.39.16.06.23.11.23.15,0,0-.03.06-.09.16-.03.05-.05.12-.07.22h-.13l.02.25.19.1c.05.1.08.17.08.22,0,.05-.01.15-.03.3-.01.07-.02.15-.02.23,0,.09.02.34.05.74l.02.39c0,.16.01.3.02.41,0,.14.02.21.02.23,0,.1-.03.17-.09.2,0,0-.04.02-.11.04-.04.01-.09.04-.16.09v.05l-.02.02.18.15v.26l.22.1c-.45.24-.68.48-.68.71,0,.22.22.41.66.57-.07.07-.1.14-.1.19,0,.05,0,.16.03.34,0,.05,0,.11,0,.16,0,.04,0,.09,0,.16l.09.04c-.04.22-.05.37-.05.45h0s.02.31.02.31c0,.28.02.43.02.48,0,.03.03.11.08.26-.08.19-.12.32-.12.38,0,.04,0,.1,0,.16l-.02.02c-.19.03-.28.09-.28.19h0s.05.18.05.18l.26-.07c0,.1.02.17.03.21.03.1.05.15.05.16,0,0-.01.05-.03.14,0,.03,0,.07,0,.1,0,.04.01.26.04.66,0,.07-.02.31-.08.72-.01.09-.02.17-.02.25,0,.05.03.19.1.44-.03.19-.06.3-.08.32-.03.02-.12.05-.27.09-.1.03-.17.07-.21.1l-.12.12c-.12,0-.2,0-.21.02-.3.19-.5.3-.59.34-.09-.1-.13-.19-.13-.26,0-.02.02-.11.07-.28v-.23s.05-.22.05-.22l.03-.41.03-.23c0-.19,0-.31.03-.36.03-.07.11-.16.23-.27-.1-.11-.16-.2-.16-.27h0s.02-.35.02-.35v-.41c.02-.2.02-.36.02-.48l.12-.14c0-.06,0-.1,0-.12,0-.05,0-.12.02-.22l-.12-.12h-.03l.05-.16v-1.27s0-.13.03-.27c.03-.14.04-.25.04-.34,0-.03-.02-.13-.05-.3l-.04-.36c-.01-.1-.02-.16-.02-.17,0-.01.03-.11.1-.31,0-.12.01-.19.02-.2.02-.04.09-.07.21-.09v-.14l-.25.05c-.04-.13-.05-.22-.05-.26,0-.05.01-.13.04-.24,0-.05.02-.12.04-.22-.07-.03-.13-.05-.18-.08l.02-.19v-1.5c0-.09.1-.18.3-.27.2-.09.3-.16.3-.21,0-.03-.1-.1-.3-.21-.09-.05-.19-.12-.31-.23.12-.06.18-.11.18-.16,0,0-.03-.1-.09-.29,0-.02,0-.04,0-.06,0-.06,0-.12.02-.2-.14-.16-.21-.34-.21-.56,0-.05.04-.14.12-.26-.04-.14-.07-.22-.09-.27l-.02-.04c0-.14.24-.31.7-.52.05-.02.07-.04.07-.06,0-.02-.24-.08-.73-.18-.06-.01-.09-.05-.09-.11,0-.02,0-.05.03-.09-.17-.07-.42-.11-.76-.12-.1,0-.26,0-.46-.02h-.02s-.15.02-.38.05l-.6-.05s-.08.02-.16.05c-.08-.06-.16-.09-.23-.09h-.2l-.41-.14-.12.05-.15.06-.27.12c-.22-.05-.34-.07-.37-.07-.05,0-.19.02-.41.05h-.66s-.18-.02-.41-.07c-.02,0-.05,0-.09,0-.09,0-.24.01-.46.04,0-.01-.01-.02-.02-.04-.01-.01-.02-.02-.02-.02,0-.04.04-.09.11-.16.04-.04.09-.1.13-.18Z"/>
    <path class="cls-3" d="m48.86,100.91c.05-.09.15-.17.32-.26l.52-.27c.14-.07.28-.1.41-.1.05,0,.11.02.19.07-.25.1-.39.17-.42.21l-.3.31.6.57s.04.08.04.16c0,.04-.03.13-.09.26l-.07.15-.13.06s-.04.04-.06.1c-.03.06-.04.1-.04.13,0,.05,0,.11.03.19.06,0,.12-.02.2-.07.05-.03.1-.04.16-.05l-.08,1.37s0,.11.02.2c0,.07,0,.13,0,.18,0,.11-.06.23-.18.35,0,.11.01.18.04.21l.14.16s.05.1.05.19c0,.04-.03.17-.09.39l.05.3c.03.29.04.43.04.45,0,.02-.03.1-.09.27l.05.33-.02.16c.03.16.05.25.05.25,0,.03,0,.06-.02.09-.06.28-.09.55-.09.82,0,.11.03.22.08.34.28-.16.62-.42,1.01-.8l.33.06c.12-.08.25-.13.4-.16.24-.05.38-.07.44-.07.06,0,.12.04.2.12l.05.17h.19s.08-.1.12-.19c.02-.05.05-.07.09-.06l.47.03c.46.03.72.06.76.09,0,0,.09.1.26.29.06.07.17.15.34.22l-.12.23c.07.05.16.07.27.07.11.14.16.28.16.42,0,.17,0,.35-.02.54-.02.18-.05.3-.11.36l-.09.09.12.3-.16.19-.02.07.21.22c-.03.07-.04.12-.04.14v.2s.03.47.03.47v.09c-.09.16-.13.25-.13.28s.03.21.1.54l-.02.67s0,.04,0,.09c-.12.08-.27.13-.44.15-.09.07-.18.12-.27.16-.12.04-.21.08-.3.12l-.27-.24c.04-.13.09-.27.16-.43.09-.2.13-.4.13-.6,0-.05-.04-.17-.11-.37l.02-.1.05-.29c.06-.17.11-.39.15-.66l-.13-.08c0-.18.03-.48.09-.92,0-.04,0-.07,0-.09v-.05c-.04-.25-.05-.37-.05-.38s0-.03.03-.07c.02-.05.03-.08.03-.11h0s-.04-.12-.11-.27c-.04-.09-.1-.17-.19-.22-.03-.02-.12-.05-.27-.09-.21-.1-.33-.16-.37-.17-.03,0-.14,0-.33,0-.29-.04-.46-.06-.52-.06-.04,0-.09,0-.16,0-.22.02-.35.02-.38.02-.19,0-.4.03-.63.09l-.1.02-.45.23-.27.09c-.38.34-.57.53-.57.57,0,.13.17.23.52.3-.02.11-.03.18-.04.21-.03.16-.06.44-.08.86-.11,0-.19.02-.23.06v.05c.13.16.22.29.25.4.04.14.07.36.08.67l.04.25-.07.34.04.21v.27s-.02.09-.08.16c0,.01-.17.07-.49.17-.08.03-.21.12-.38.27l-.18-.16c0-.16.04-.35.11-.59v-.23s.04-.08.11-.22c.04-.06.05-.12.05-.19,0-.04-.01-.08-.04-.12-.06-.11-.09-.17-.09-.2h0s.02-.41.02-.41v.17-.54s0-.07,0-.12c0-.05,0-.08,0-.09l-.02-.29.04-.59-.02-.45c0-.05.02-.1.03-.15,0-.02.07-.09.2-.2.03-.03.05-.07.05-.12,0-.07,0-.16-.02-.25l-.19.05c-.06-.25-.09-.53-.09-.84,0-.4.01-.84.04-1.33l.27-.03c-.06-.11-.11-.24-.13-.37l-.18-.12c.02-.15.03-.26.03-.34,0-.08,0-.16-.02-.26-.05-.36-.08-.62-.08-.77,0-.12.05-.23.15-.3.24-.18.37-.28.37-.3h0c-.11-.12-.29-.18-.55-.2.02-.08.04-.17.05-.29.06-.18.09-.29.09-.31,0-.08-.05-.16-.16-.24,0-.14,0-.24,0-.31,0-.1,0-.2,0-.28-.01-.18-.02-.29-.02-.35,0-.03.02-.14.05-.34-.12-.4-.19-.62-.19-.67s0-.11,0-.18l-.16-.16Z"/>
    <path class="cls-3" d="m61.64,107.62l.25-.16c.08.09.13.15.16.18,0,.01.06.04.16.08.05.03.28.25.67.66.12.13.21.25.26.37.04.1.09.22.13.36.03.07.07.17.11.28l-.05.05c-.06-.01-.14-.03-.23-.07l-.3.11-.27-.05-.23.06c-.32-.23-.49-.34-.51-.34-.03,0-.15.11-.37.32-.33-.06-.51-.09-.53-.09-.08,0-.18,0-.3.02l-.04-.03c-.08.01-.31.02-.68.02l-.29.03-.36.03-.37.06h-.33c-.3.09-.51.14-.62.16-.03.18-.05.3-.08.37-.03.08-.09.16-.19.26.17.11.25.2.27.24.05.33.1.56.15.67l.14.08-.04.29.24.06c.05.21.12.36.2.43.08.07.21.11.39.14.03.16.07.26.12.29.04.03.13.05.28.06l.13.2c.06-.01.11-.02.15-.02.03,0,.19.07.47.2.06.03.13.05.2.05.07,0,.2-.03.4-.09l.5-.05.38-.11c.18-.01.3-.03.37-.05.09-.04.25-.13.48-.27.23-.14.36-.24.4-.29.09-.11.18-.23.27-.38.04-.06.11-.09.22-.09.05,0,.11.03.2.1-.04.19-.07.31-.1.37-.22.37-.36.61-.41.73-.07-.03-.12-.05-.17-.05-.03,0-.12.05-.26.16-.09.06-.21.1-.35.11-.32.09-.55.14-.67.16-.21.02-.35.04-.41.05-.16.05-.25.08-.25.08l-.46-.07-.27.05h-.13c-.12.02-.22.03-.29.03s-.26-.02-.57-.05l-.15-.02-.16-.1c-.39-.12-.61-.19-.65-.21-.03-.02-.12-.09-.27-.23-.01-.01-.1-.07-.27-.17-.15-.09-.22-.16-.23-.2l-.14-.25s-.11-.14-.27-.3c.05-.08.08-.15.08-.19,0-.02-.07-.16-.2-.44-.04-.07-.05-.29-.05-.66,0-.11.04-.3.11-.56.06-.2.11-.32.13-.35l.27-.31.17-.37c.18-.17.38-.35.61-.56l.57-.35.58-.4.21-.04.59-.19.38-.03c.31-.11.48-.17.51-.17.29,0,.49.14.59.41Zm-.91,1.17l.13.16c.1-.02.17-.03.21-.04.14-.02.28-.06.42-.11l.45.04s.02-.03.04-.08c0-.03,0-.06,0-.08,0-.05-.03-.1-.09-.17-.01-.01-.04-.04-.08-.09-.12-.17-.2-.25-.23-.23l-.26-.12s-.08-.08-.15-.18c-.15-.02-.41-.03-.77-.03h-.16s-.27.15-.27.15c-.01.01-.15.05-.43.11-.22.08-.41.15-.58.23-.04.03-.14.11-.3.27-.03.03-.09.07-.18.14v.05l.02.02.57.23.17.17.3-.37s.05-.03.09-.03c.02,0,.14.03.38.1h.02c.07,0,.22-.03.45-.08.05-.02.13-.03.25-.04Z"/>
    <path class="cls-3" d="m68.92,108.41c-.08-.05-.12-.1-.12-.16,0-.03.03-.16.09-.39.02-.14.09-.4.2-.77l.34-.02c0-.06-.04-.16-.11-.3-.02-.03-.02-.07-.02-.12,0-.06.06-.27.2-.63.04-.21.11-.41.2-.59.06-.1.15-.25.26-.43.07.01.12.02.14.03.08.03.12.04.13.04.04,0,.09-.03.16-.09.07-.01.11-.03.13-.05.02-.02.04-.06.05-.12l-.19-.02-.08-.28c0-.05.08-.16.23-.31.04-.04.08-.09.12-.16.07-.11.11-.18.14-.21.09-.09.15-.18.19-.28l.05-.05c.09-.14.17-.22.23-.27.03-.03.14-.1.32-.22l.02.02.22-.11.02-.18,1.01-.8s.11-.08.23-.14l.21-.14.2-.05c.2-.14.32-.21.34-.21.05,0,.12.03.23.08l.11-.29.32.06.02-.15c.17-.05.29-.09.34-.11.19-.07.38-.12.56-.13l.23-.07c.18-.04.28-.06.3-.07.05-.02.11-.07.19-.14.07,0,.13,0,.19,0,.06,0,.19-.03.39-.1.08-.03.16-.04.26-.04.08,0,.15.01.23.03.06.02.09.02.11.02l1.04-.03c.2.01.38.11.55.29.11.12.18.19.21.19.09,0,.18-.11.27-.33.17.11.31.16.42.16.04,0,.07,0,.11,0l.21-.05.25.09c.69.18,1.13.31,1.33.4v.23h0c-.08.08-.14.14-.16.16-.19.2-.32.3-.38.3-.05,0-.14-.03-.26-.1-.3-.12-.64-.25-1.02-.39l-.1-.26c-.1.02-.17.04-.2.05-.08.03-.13.04-.15.04-.02,0-.19-.05-.51-.16-.09-.04-.15-.07-.18-.11-.03-.04-.05-.07-.07-.11-.17.07-.28.1-.33.1h-1.07l-.2-.02c-.23.04-.41.08-.54.13l-.48.05c-.2.04-.36.07-.48.09-.06.01-.16.05-.3.13l-.39.18-.28.2c-.57.23-.95.48-1.15.75-.13.04-.28.11-.46.22,0,.06-.01.12-.03.18-.1.05-.24.16-.41.34l-.19.17c-.16.21-.26.33-.3.36-.05.03-.09.05-.13.05-.02,0-.05,0-.09,0,.03.06.05.09.05.11s-.13.23-.38.65c-.2.21-.31.34-.34.38-.02.03-.08.17-.18.41l-.16.39-.07.23c-.15.25-.24.45-.27.57-.02.08-.05.24-.1.47-.08.31-.12.48-.13.51-.02.07-.1.12-.26.16.02.14.08.25.18.34-.05.14-.08.22-.08.27,0,.11.02.26.06.43,0,.02,0,.03,0,.03,0,.05-.02.08-.07.1l-.62.23s-.07.04-.07.09c0,.02.01.05.04.09.08.12.13.21.15.27.04.11.07.17.08.17.11.09.23.19.35.29l.13.36c.04.08.06.17.07.28h-.05l.05.27.11.03c.06.1.09.18.09.24h.02c.02.1.03.17.03.2.03.16.05.26.07.3l.14.28c.15.38.22.6.22.67,0,.05-.05.08-.16.08l.08.2c.1,0,.18,0,.24.02.05.02.1.05.15.08.1.12.2.24.3.37l.23.21.18.23c.21.11.35.2.43.27,0,.12.05.22.12.27.1.07.22.14.38.19l.35.21.27.12.24.12.26.1.18.13c.05.03.1.07.16.13.07-.07.14-.11.21-.11,0,0,.31.08.91.24.65,0,.99,0,1.02,0s.07.02.12.05c.09.05.16.08.23.09.07-.04.12-.08.13-.1.04-.04.07-.05.09-.05h.09s.05.02.05.02l.63-.09c.1,0,.33-.06.7-.16.19.06.31.09.34.09.08,0,.21-.06.39-.18l.37-.09c.22-.07.37-.13.45-.17l.18.04c.07.01.29-.05.66-.17.43-.15.66-.22.68-.23.02-.01.06-.06.12-.15l.3-.15c.16-.09.31-.14.45-.14.03,0,.09.02.19.05,0-.14.03-.22.07-.25.03-.03.11-.07.27-.13.17-.1.26-.15.28-.15.04,0,.09.02.16.07-.02.28-.08.49-.16.64-.05.08-.08.18-.11.3-.02.05-.05.09-.09.12-.04.03-.26.07-.66.14-.18.08-.3.12-.37.13-.04.01-.18.04-.42.1l-.34.07-.37.1-.33.05c-.32.1-.51.15-.56.15-.06,0-.14,0-.24,0-.07,0-.18,0-.32,0v.05c0,.1-.06.15-.19.15-.02,0-.04,0-.06,0-.1-.01-.15-.02-.16-.02,0,0-.03,0-.09.02l-.96.22c-.2.04-.44.07-.7.08l-.59.03h-.03c-.05.07-.11.11-.2.12-.24.01-.45.02-.62.02-.11,0-.28-.05-.52-.14-.05-.02-.12-.03-.2-.03-.07,0-.14.05-.21.14l-.38-.02c-.09-.15-.18-.22-.27-.22h-.02c-.11,0-.21,0-.29,0-.08.01-.13.02-.14.02-.2,0-.45-.08-.74-.24-.22-.12-.47-.25-.75-.36-.43-.27-.72-.44-.86-.51l-.05-.14h.17v-.11c0-.17-.07-.27-.2-.28-.08.09-.14.13-.2.13-.03,0-.12-.07-.27-.2l-.53-.37-.16-.23-.08-.09-.27-.41c-.41-.55-.68-1.17-.81-1.86l.16-.09v-.15l-.17-.12c0-.12-.02-.23-.07-.34l-.05-.16c-.06-.09-.09-.15-.09-.17,0-.02,0-.12,0-.3l-.03-.34.05-.16c-.05-.15-.08-.25-.08-.3,0-.12.04-.23.12-.34,0-.01.03-.11.06-.29Z"/>
    <path class="cls-3" d="m86.25,110.62c.06-.1.12-.17.18-.2.04-.03.2-.07.47-.12.2-.1.33-.16.4-.18.05-.01.2-.03.47-.05l.25-.09.15-.02.14-.02h.3l.62-.08c.18-.02.3-.04.34-.07.09-.07.14-.17.14-.3,0-.03-.02-.11-.06-.25l.41-.51s-.16-.06-.48-.16c-.03-.01-.1-.02-.23-.02-.22-.29-.36-.45-.4-.48-.05-.02-.25-.06-.59-.11h-.25c-.12-.03-.19-.05-.23-.05-.04,0-.1,0-.18.02l-.15-.19c-.12.04-.2.1-.27.17-.05.06-.13.11-.24.15-.27.11-.5.24-.67.38l-.11.07c-.07.1-.11.15-.13.16-.06.04-.14.05-.22.05-.03,0-.13-.03-.29-.09-.18-.04-.29-.08-.33-.1-.05-.03-.11-.1-.18-.2.09-.07.15-.12.19-.15.09-.08.15-.12.18-.12l.37-.09.23-.12.5-.16.31-.13h.32l.35-.1h.15s.27-.05.27-.05c.25,0,.42,0,.48,0,.07,0,.21.04.42.11l.19.02c.2.04.35.06.43.08.07,0,.17.06.28.17-.09.08-.13.14-.13.2,0,.07.03.11.09.11.04,0,.1-.02.18-.06.05-.02.12-.04.22-.07.07.07.1.16.11.27l.2.14c0,.06.02.09.02.11l-.02.3c.06.23.11.37.17.43h.03c.02.11.04.24.06.38.02.3.03.5.03.6-.12.07-.18.14-.18.21,0,.08.07.15.21.21,0,.07,0,.12,0,.17s-.01.14-.03.27c0,.06,0,.11,0,.17,0,.17.03.39.09.64-.09.09-.14.19-.14.28,0,.08.04.18.13.3,0,.02.03.07.05.15.02.04.04.11.09.21-.06.07-.1.13-.12.2-.04.04-.12.08-.24.12l-.3.13-.19.05c-.19.07-.3.1-.32.1-.05,0-.11-.03-.17-.09l.12-.52c-.15.04-.37.12-.66.24l-.23.05c-.14.03-.21.05-.21.05l-.29-.03-.29.15-.16.02-.63.13-.33-.02c-.16.06-.27.09-.33.09-.07,0-.28-.03-.61-.1l-.33-.03-.24-.1c-.18-.07-.32-.14-.41-.2-.08-.06-.14-.16-.19-.3l-.18-.06c-.02-.05-.04-.15-.07-.28l-.08-.34h0c0-.05.03-.13.1-.23.06-.08.13-.21.22-.4.25-.25.42-.41.51-.48.07-.06.24-.14.49-.24.15-.09.24-.14.27-.14.04,0,.09,0,.15.02Zm-.48,1.66c-.04.07-.08.14-.12.21-.06.09-.08.16-.08.19l.08.15.22-.19c.18.12.3.19.37.2.19.05.3.08.31.09.03.02.08.08.13.16.12.02.2.03.24.03.04,0,.08,0,.1,0,.06,0,.13-.04.21-.11.07.05.13.08.19.08,0,0,.07-.03.17-.1l.22.05.42-.15.2-.09.17.03.3-.12.34-.13c.09-.14.14-.21.16-.23.05-.05.14-.09.27-.12l.05-.25c.09-.05.15-.12.17-.22-.07-.05-.12-.11-.16-.16,0-.09,0-.15,0-.2v-.12c0-.14-.01-.26-.02-.36,0-.03,0-.06,0-.09,0-.06.02-.15.06-.27-.05,0-.11-.04-.18-.09h-.34s-.3,0-.3,0h-.23s-.15,0-.15,0c-.02,0-.1-.04-.23-.12l-.17.05c-.21,0-.36.02-.46.05-.06.03-.12.04-.16.04-.01,0-.07-.02-.18-.05h-.02s-.11.05-.25.14c-.02.02-.16.07-.41.16-.33.15-.57.28-.72.41-.02.02-.07.09-.17.23-.03.05-.12.09-.27.13-.02.04-.03.07-.03.09,0,.02.02.05.06.09l.05.42s.05.1.12.18Z"/>
    <path class="cls-3" d="m92.86,100.91c.11-.05.36-.21.75-.48.19-.06.34-.12.45-.18.05.02.08.05.08.09,0,.02-.03.14-.1.38,0,.01,0,.03,0,.05v.11l.03,1.03s-.12.12-.38.23c-.15.07-.23.16-.23.27,0,.15.21.38.63.67l-.24.07.02.69s.08.04.09.04c.1.03.15.06.15.09,0,.04-.01.12-.03.25,0,.03,0,.06,0,.08,0,.03.02.17.05.43v2.17c0,.08-.02.2-.06.35-.01.04-.02.08-.02.14,0,.16.06.32.19.46,0,.05,0,.1-.02.16-.02.08-.02.15-.02.2h0c0,.27,0,.42.03.47l.04.09-.48.62.45.29c-.05.29-.07.43-.07.45,0,.08.04.18.11.32.05-.02.17-.11.37-.27l.48-.34.73-.77.29-.28.19-.2.48-.48c.27-.33.44-.53.52-.6.24-.21.44-.35.61-.42.07.08.17.15.3.2,0,.07.02.12.02.16,0,.16-.07.3-.2.43-.07.07-.19.12-.34.14-.11.15-.2.23-.27.23-.14.02-.24.04-.29.08.02.09.03.16.03.23,0,.1-.11.22-.33.36-.1.06-.17.11-.21.16-.08.07-.13.12-.16.13-.01.02-.08.03-.2.03-.02.1-.05.17-.08.22-.02.02-.12.08-.3.2-.32.27-.51.43-.56.48-.06.05-.1.12-.12.21.22.25.4.41.54.49.38.25.58.38.59.41.03.09.07.17.14.23,0,.03,0,.05,0,.07,0,.04.03.09.09.14.17.14.25.21.27.22.1-.03.18-.07.24-.1.46.21.78.34.95.38l-.02.19c.1.08.18.12.23.12.02,0,.09-.02.22-.07l.22.09c.09.03.16.07.19.12.08-.02.15-.02.2-.02.02,0,.03,0,.05,0,.09.02.13.03.14.03l.25-.09.04.04s0,.03,0,.03c0,.02-.04.14-.12.36-.06.17-.19.3-.39.4-.06.02-.18.04-.38.05-.16.06-.25.09-.27.09-.04,0-.15-.04-.34-.11-.32-.08-.52-.15-.6-.19-.16-.08-.27-.13-.31-.16.02-.07.02-.12.02-.17,0-.04-.01-.07-.03-.09-.05-.06-.1-.09-.16-.09h-.02c-.18.03-.28.05-.28.05-.04,0-.09-.04-.17-.11-.11-.09-.25-.2-.43-.32l-.41-.35-.26-.09c-.17-.17-.42-.4-.77-.67-.21-.14-.33-.21-.35-.21-.07,0-.1.04-.1.12,0,.04,0,.1.03.17.02.09.03.35.03.77l.09.72-.02.12s-.01.12-.02.21c-.07.06-.12.09-.12.09-.01,0-.12.03-.34.09-.21.05-.4.12-.58.21l-.08-.22h0c.07-.39.12-.75.15-1.1l.04-1.12.16.02.09-.23c-.14-.1-.21-.18-.21-.26,0-.1.06-.26.19-.47l-.23-.12c.28-.1.42-.2.42-.3,0-.05-.05-.11-.15-.17-.19-.12-.29-.2-.3-.23v-.07s.02-.09.02-.16h0s0-.11-.02-.27c-.01-.07-.02-.17-.02-.28,0-.06,0-.15,0-.27l.22-.17v-.05l-.21-.15-.07-1.3-.07-.51c.16-.14.24-.25.24-.34,0-.07-.08-.16-.23-.27.02-.07.03-.1.03-.11-.1-.62-.15-.95-.15-.99,0-.05.03-.25.09-.6l-.02-.13c0-.07-.06-.13-.16-.19,0-.04,0-.08,0-.1s-.02-.09-.06-.2l.02-.27c-.05-.4-.07-.61-.07-.64,0-.04,0-.1,0-.17,0-.12,0-.26,0-.4,0-.11-.02-.2-.05-.24v-.02s.06-.28.06-.28v-.02s-.05-.13-.05-.24Z"/>
    <path class="cls-3" d="m105.11,107.62l.25-.16c.08.09.13.15.16.18,0,.01.06.04.16.08.05.03.28.25.67.66.12.13.21.25.26.37.04.1.09.22.13.36.03.07.07.17.11.28l-.05.05c-.06-.01-.14-.03-.23-.07l-.3.11-.27-.05-.23.06c-.32-.23-.49-.34-.51-.34-.03,0-.15.11-.37.32-.33-.06-.51-.09-.53-.09-.08,0-.18,0-.3.02l-.04-.03c-.08.01-.31.02-.68.02l-.29.03-.36.03-.37.06h-.33c-.3.09-.51.14-.62.16-.03.18-.05.3-.08.37-.03.08-.09.16-.19.26.17.11.25.2.27.24.05.33.1.56.15.67l.14.08-.04.29.24.06c.05.21.12.36.2.43.08.07.21.11.39.14.03.16.07.26.12.29.04.03.13.05.28.06l.13.2c.06-.01.11-.02.15-.02.03,0,.19.07.47.2.06.03.13.05.2.05.07,0,.2-.03.4-.09l.5-.05.38-.11c.18-.01.3-.03.37-.05.09-.04.25-.13.48-.27.23-.14.36-.24.4-.29.09-.11.18-.23.27-.38.04-.06.11-.09.22-.09.05,0,.11.03.2.1-.04.19-.07.31-.1.37-.22.37-.36.61-.41.73-.07-.03-.12-.05-.17-.05-.03,0-.12.05-.26.16-.09.06-.21.1-.35.11-.32.09-.55.14-.67.16-.21.02-.35.04-.41.05-.16.05-.25.08-.25.08l-.46-.07-.27.05h-.13c-.12.02-.22.03-.29.03s-.26-.02-.57-.05l-.15-.02-.16-.1c-.39-.12-.61-.19-.65-.21-.03-.02-.12-.09-.27-.23-.01-.01-.1-.07-.27-.17-.15-.09-.22-.16-.23-.2l-.14-.25s-.11-.14-.27-.3c.05-.08.08-.15.08-.19,0-.02-.07-.16-.2-.44-.04-.07-.05-.29-.05-.66,0-.11.04-.3.11-.56.06-.2.11-.32.13-.35l.27-.31.17-.37c.18-.17.38-.35.61-.56l.57-.35.58-.4.21-.04.59-.19.38-.03c.31-.11.48-.17.51-.17.29,0,.49.14.59.41Zm-.91,1.17l.13.16c.1-.02.17-.03.21-.04.14-.02.28-.06.42-.11l.45.04s.02-.03.04-.08c0-.03,0-.06,0-.08,0-.05-.03-.1-.09-.17-.01-.01-.04-.04-.08-.09-.12-.17-.2-.25-.23-.23l-.26-.12s-.08-.08-.15-.18c-.15-.02-.41-.03-.77-.03h-.16s-.27.15-.27.15c-.01.01-.15.05-.43.11-.22.08-.41.15-.58.23-.04.03-.14.11-.3.27-.03.03-.09.07-.18.14v.05l.02.02.57.23.17.17.3-.37s.05-.03.09-.03c.02,0,.14.03.38.1h.02c.07,0,.22-.03.45-.08.05-.02.13-.03.25-.04Z"/>
    <path class="cls-3" d="m113.29,111.73c.08-.01.14-.02.18-.04v-.14l-.13-.11c-.01-.11-.03-.25-.05-.39,0-.03,0-.06,0-.09,0-.1.06-.21.17-.34l-.02-.02c-.01-.09-.04-.16-.09-.21-.03-.04-.06-.1-.08-.19-.04-.16-.05-.28-.05-.37l.05-.62v-.54l.11-.12c-.11-.04-.16-.06-.16-.08.03-.4.05-.6.05-.6,0-.07-.02-.25-.05-.52l.03-.03-.02-.39c.06-.04.13-.06.21-.08.04-.01.09-.03.13-.06-.02-.08-.07-.16-.14-.22,0-.05.02-.08.02-.1,0-.06-.02-.13-.07-.23l-.16.1c-.08-.18-.12-.32-.12-.41,0-.04.01-.11.04-.23l-.02-.44v-.23l-.03-.16.02-.33c-.08-.48-.12-.75-.12-.8,0-.07.02-.15.06-.23.02-.04.03-.11.04-.2.05-.05.08-.09.08-.13v-.05l.03-.2-.23.02c0-.11-.02-.23-.05-.38l-.03-.21c-.05-.3-.08-.53-.08-.69,0-.11.02-.23.05-.36-.06.02-.17.03-.34.03l-.41.09s-.05,0-.09-.02c.08-.21.12-.31.13-.31.11-.06.2-.11.24-.16v-.04c.1-.02.17-.04.2-.05.13-.04.21-.05.24-.05,0,0,.08.01.22.04.04.01.08.02.12.02.07,0,.23-.06.48-.17.02,0,.13,0,.34,0,.04,0,.22-.02.54-.06.03,0,.04,0,.05,0,.07,0,.19.02.36.07.08.03.16.04.23.04.04,0,.14-.01.3-.04.07.13.13.2.19.22.05.01.13.02.27.02l.05-.1c.13-.03.24-.08.34-.14.26.03.49.05.7.05.27.01.58.05.94.12h.29l.48.05c.12,0,.19.01.21.02.06.02.13.06.21.14.1-.02.17-.02.22-.02.1,0,.43.11.99.32.25.08.4.14.44.18.1.12.16.28.16.48,0,.25-.14.57-.41.98l-.22.35c-.29.25-.48.44-.57.56h-.34l-.03.02v.24c-.11.06-.18.1-.21.12-.27.16-.5.27-.69.33l-.28.13c-.2.04-.33.06-.37.08-.04.02-.09.05-.15.1.1.05.18.08.24.09.01,0,.18.02.52.04.15.01.32.05.53.12.29.1.51.17.66.2.11.02.23.06.34.12-.02.08-.03.16-.03.22,0,.08.07.15.21.22.04-.05.11-.17.2-.37.12,0,.25.03.38.09.25.1.42.17.51.2.06.01.11.08.15.22l.21.09.02.09.12-.05.08.09c.07-.07.13-.1.2-.1.12,0,.29.07.52.22.41.27.71.46.88.59.08.06.18.17.3.32-.02.05-.03.08-.03.1,0,.04.02.09.06.15.06-.06.11-.09.16-.09.02,0,.25.16.67.47l.1.15c.1.06.17.1.2.12.02.02.08.11.2.27.16.19.26.33.32.44-.13.11-.2.21-.2.31,0,.03,0,.06,0,.1l.27-.04c.1.14.18.27.23.39.03.07.08.27.16.59.11.25.17.43.18.53h0s-.02.3-.02.3v.3c0,.1-.1.25-.28.45,0,.04.04.08.12.12,0,.06,0,.12,0,.16,0,.03,0,.05,0,.08.01.08.02.14.02.16,0,.03-.16.27-.49.72l-.17.12-.18.16c-.14.09-.22.14-.24.16-.02.02-.06.1-.14.24-.14.18-.41.35-.82.52l-.1-.09c-.16.02-.27.04-.33.06-.06.03-.14.11-.22.23.11.01.16.05.16.13,0,.03-.02.07-.05.11-.04.06-.25.12-.61.19-.11.02-.35.11-.71.28-.08.03-.15.06-.22.09-.21.08-.34.13-.38.15-.06.03-.11.05-.13.05-.03,0-.08-.02-.15-.07l-.23.08-.07.12c-.1.02-.17.03-.2.04-.16.03-.26.05-.31.08l-.2.12c-.2-.06-.32-.09-.34-.09-.03,0-.08.04-.16.12-.03.03-.08.05-.17.06-.22.04-.39.09-.51.16l-.2-.18h-.05c-.06,0-.13-.02-.2-.04l-.16.22-1.53.05-.34-.09.05-.23-.22-.05c-.06.07-.14.12-.23.15-.17.05-.26.08-.29.08,0,0-.2-.04-.59-.13l-.13-.07-.27.02c-.12-.05-.24-.08-.34-.09-.07,0-.21-.02-.41-.03l-.21.02-.3-.02-.71-.03h-.04c-.24.02-.38.04-.43.04-.27,0-.41-.06-.41-.18,0-.02.01-.04.04-.06.1-.09.2-.16.3-.2l.6-.23c.05-.02.1-.08.16-.16.04-.08.06-.14.06-.17l-.02-.22.69-.2-.57-.16c-.08-.02-.12-.08-.12-.19,0-.03.03-.1.1-.23v-.45s0-.12,0-.12c0-.05-.04-.16-.13-.35l.75-.32-.73-.23c.06-.07.1-.11.1-.12.02-.02.03-.08.04-.18,0-.04.02-.12.05-.23Zm.62-8.75h.03l.05-.02c.05.1.12.19.2.27v1.31l-.04.22c.13.03.22.05.26.06.04.01.07.02.09.02l.18-.02h0s.1.01.27.04c.22.01.44.03.67.05-.02.08-.03.15-.03.2,0,.17.04.25.12.25.05,0,.17-.13.36-.39v-.12l1.42-.29c.06-.02.18-.08.34-.19l.32-.11.27-.19c.39-.22.65-.4.78-.52.2-.19.3-.31.31-.34l.14-.39c.08-.22.12-.34.12-.37,0-.06-.05-.14-.14-.22l.1-.23s-.08-.03-.1-.03c-.01,0-.09.03-.25.09l-.34-.38c-.05,0-.09,0-.12,0-.07,0-.17-.02-.3-.05-.05-.08-.08-.13-.09-.13l-.78-.15-.29-.09-.25.04-.15-.02h-.21l-.29-.07-.3-.02-.27-.02-.66.09-.59.05c-.16.04-.29.05-.4.05h-.19c-.05.11-.08.18-.09.2l-.05.91c0,.08-.07.18-.2.28l.02.02c.03.05.05.11.06.18Zm.1,9.89l.07.26.24-.04c.06.15.09.27.09.38v.04c0,.06,0,.14-.02.22-.02.08-.02.12-.02.12.07.39.11.59.11.61,0,.11-.06.23-.19.35-.05-.02-.1-.02-.14-.02-.03,0-.07.03-.11.08.12.08.27.14.43.16.14.02.27.05.38.12l.03.16c.09-.02.16-.07.23-.15.18.08.38.15.59.19l.27.11.24.03c.63.09,1.13.14,1.49.14.3,0,.73-.06,1.27-.17l.16.12c.07-.08.11-.13.14-.13l.34-.05c.06,0,.14-.06.26-.17.19,0,.32-.02.37-.03l.44-.11c.23-.05.43-.11.6-.2.1-.05.18-.08.23-.08.02,0,.06.01.12.03.05-.06.11-.1.2-.13.59-.25,1-.5,1.25-.72.05-.04.28-.17.69-.39.03-.02.08-.1.16-.26.12-.15.2-.24.23-.28.06-.06.18-.13.38-.2l.02-.16c.48-.08.72-.14.72-.17s-.25-.08-.74-.14c.08-.15.13-.25.16-.3,0-.03.04-.17.09-.42.03-.09.05-.17.05-.23l-.03-.03.14-.11c-.06-.09-.09-.15-.09-.17v-.38l-.16-.28v-.23c0-.16-.15-.44-.48-.86-.12-.17-.38-.44-.77-.82.01-.06.02-.11.02-.15s-.02-.08-.05-.12c-.05-.05-.09-.07-.1-.07h-.09c-.1-.05-.21-.1-.3-.15-.2-.11-.32-.18-.36-.2-.03-.02-.07-.07-.12-.16,0,0-.02-.02-.05-.04-.05-.03-.09-.06-.14-.09-.1-.08-.21-.13-.32-.16l-.16-.1c-.09-.05-.14-.08-.16-.09-.01-.01-.05-.1-.13-.28-.01-.02-.03-.03-.06-.03-.02,0-.11.04-.27.11-.02,0-.03,0-.04,0-.07,0-.14-.02-.23-.07-.1-.07-.23-.13-.38-.18l-.16-.08-.7-.21-.48-.26c-.15-.06-.26-.12-.34-.19-.18.08-.28.12-.31.12l-.44-.14-.28-.11-.32-.05-.26-.06-.15-.02-.29-.06c-.44-.04-.67-.06-.69-.06l-.41.02-.64-.02c-.23,0-.47.11-.71.33.02.12.05.32.1.58,0,.02,0,.04,0,.07,0,.06-.02.15-.07.29h-.02c-.12,0-.21.02-.26.05.03.18.04.29.05.32,0,.03.06.09.16.2-.02.08-.03.16-.04.26v.3c0,.06.02.2.05.42,0,.09.02.17.02.25,0,.07,0,.16-.02.29l-.04.46-.02.16.08.3.02.38c.04.21.05.35.05.42,0,.1-.02.27-.07.51h-.12l.04.39c.13.1.2.21.2.31v.52s0,.12,0,.23l-.05.05h-.04l-.03.03v.05c-.08,0-.14,0-.2,0-.08,0-.13.02-.16.07Z"/>
    <path class="cls-3" d="m127.52,111.21c0-.34.02-.59.06-.75.04-.14.11-.34.22-.62.21-.4.34-.62.37-.67.03-.05.15-.14.36-.27,0,0,.04-.08.12-.23.05-.08.09-.13.12-.15.06-.05.26-.15.6-.32.11-.05.23-.15.38-.3.02-.02.33-.14.94-.37.31-.12.77-.18,1.37-.18.12,0,.28.02.47.06l.03.16c.07.03.14.07.19.11.08-.03.14-.09.19-.2.29.06.54.17.75.31.16.1.25.16.27.19.01.02.06.11.16.27.1.16.28.25.53.25.12.21.2.36.24.46s.07.27.1.5c.03.24.05.43.07.56h-.12v.09l-.16.18c.02.09.09.17.22.25-.02.23-.03.39-.05.47-.01.04-.05.13-.12.27-.19.45-.33.74-.41.87-.28.33-.53.54-.76.61l-.42.21-.4.19c-.21.11-.33.18-.37.18s-.29.02-.76.05l-.55.12h-.55l-.25.03c-.46-.08-.75-.12-.86-.12-.07-.08-.13-.13-.16-.15-.01,0-.11-.02-.3-.05-.1-.02-.31-.13-.62-.34-.05-.03-.14-.08-.28-.16-.03-.09-.05-.16-.06-.2-.02-.06-.04-.1-.06-.12,0,0-.06-.04-.16-.11,0,0-.02-.02-.05-.07-.11-.18-.17-.36-.17-.55,0-.09.05-.17.16-.25-.05-.08-.13-.15-.24-.2v-.03Zm.86-.16v.08l.07.07c.05-.05.1-.07.16-.08.04.18.08.31.11.41.03.06.16.28.41.68,0,.01,0,.03,0,.05,0,.05-.03.12-.08.23.02.07.09.11.21.12.05-.05.1-.08.13-.08.03,0,.26.11.69.33.18.09.37.13.55.13h.46l.23.05c.1.03.18.04.26.04.12,0,.25-.02.41-.05.1-.03.24-.06.43-.09.05-.02.23-.13.53-.34.2-.07.32-.11.34-.14.04-.04.14-.2.3-.46l.2-.39c.13-.12.21-.2.23-.23.02-.04.03-.09.03-.15-.08-.12-.12-.21-.12-.25h0s.03-.16.03-.16c.01-.24.04-.43.09-.59-.04-.1-.09-.25-.15-.47l-.12-.41c-.01-.05-.02-.16-.02-.32l-.03-.03h-.19c-.06-.11-.17-.27-.35-.49-.1-.13-.16-.2-.18-.21s-.06-.04-.15-.07c-.07-.03-.2-.08-.39-.16-.05-.18-.14-.27-.25-.27-.03,0-.11.03-.24.08-.16-.04-.25-.06-.27-.06-.27,0-.45,0-.53.02-.09,0-.22.07-.41.18l-.16-.12c-.08.1-.14.17-.18.19l-.34.17-.05.06-.94.79-.07.05c-.01.15-.03.24-.05.27l-.16.27c-.05.15-.12.27-.2.37,0,.04,0,.08,0,.11,0,.12-.09.22-.27.29,0,.02.02.08.06.18.14.1.21.16.21.2,0,.06-.09.13-.26.23Z"/>
    <path class="cls-3" d="m138.14,110.05l-.23.13c.03.14.05.22.06.27.01.05.02.09.02.1,0,.03-.01.1-.04.2-.03.12-.04.32-.04.61,0,.04.03.13.1.27l-.02.26.02.3c.02.27.11.46.28.57.07.04.33.13.79.27.18.05.32.08.41.08.27,0,.44-.04.52-.11l.32-.3s.09-.06.2-.11c.09.07.17.11.23.11.03,0,.07,0,.1,0,.05-.11.1-.18.13-.22.01-.01.08-.05.22-.13.02-.02.12-.16.29-.42.16-.13.24-.2.24-.21.02-.03.06-.14.12-.31.05-.14.07-.25.08-.33v-.02c-.01-.11-.02-.18-.02-.23v-.02s.02-.12.06-.27l-.12-.07-.05-.11v-1.13c0-.12-.03-.33-.08-.62v-.04c0-.07.05-.15.16-.25-.02-.06-.04-.1-.06-.11l-.1-.04s-.02-.08-.02-.22c0-.02,0-.05.02-.1.02-.09.04-.19.05-.28.09.03.15.05.18.05.05,0,.21-.05.46-.16.07-.03.17-.07.31-.1.09.26.13.43.12.51l-.05.88v.52c-.04.4-.08.64-.1.73l-.16-.05c-.05.11-.08.2-.08.25,0,.03,0,.07,0,.12l.25-.02c.02.09.02.16.02.21v.2s0,.08,0,.08v.37c0,.19-.02.38-.07.58.07.08.12.13.13.16.01.04.02.17.03.39,0,.14.04.25.09.33.04.05.11.1.22.15-.03.08-.07.14-.12.18-.03.02-.17.08-.42.18-.24.14-.38.21-.43.21-.05,0-.1-.03-.15-.09-.07-.09-.1-.2-.1-.34,0-.06,0-.14,0-.23-.1-.02-.18-.03-.26-.03-.04,0-.07,0-.11.02-.01,0-.08.07-.2.19l-.16.07-.26.15-.24.09c-.33.16-.68.25-1.05.27-.18.05-.29.08-.33.08-.03,0-.13-.03-.3-.1-.02,0-.03,0-.05,0-.05,0-.14.04-.28.11l-.23-.27h-.02s-.12.03-.33.09c-.04.01-.07.02-.11.02-.07,0-.23-.07-.48-.2-.11-.06-.2-.16-.28-.29-.11-.2-.16-.38-.16-.54,0-.05.04-.12.11-.22l-.17-.08v-.89c.1-.1.16-.19.16-.26,0-.02-.04-.11-.12-.26v-.54l-.02-.38c0-.06.05-.14.13-.22v-.11l-.2.06c.03-.3.05-.51.05-.65,0-.08,0-.16,0-.23l-.02-.17c0-.15-.02-.23-.03-.27l-.09-.22c.01-.05.09-.1.23-.15.09-.03.27-.09.53-.19l.07-.02c.1-.07.16-.1.2-.1.06,0,.1.02.14.05.02.03.06.13.12.3,0,.01-.02.07-.06.18-.04.12-.06.32-.06.61,0,.05.02.17.05.35-.09.3-.13.48-.13.55,0,.16.06.36.18.62Z"/>
    <path class="cls-3" d="m144.82,107.88c.04-.2.11-.3.21-.3h0l.38.02h.02c.29-.04.46-.07.5-.07v-.19c0-.49-.01-.89-.03-1.2-.01-.14-.04-.26-.09-.37l-.08-.16s-.03-.09-.03-.13c0-.08.06-.17.19-.28.19-.18.44-.29.73-.35.07-.14.14-.21.22-.21.03,0,.06.01.08.04.07.08.11.18.11.3,0,0-.02.42-.07,1.23-.06.21-.1.34-.12.38-.02.07-.08.15-.18.23,0,.1.02.21.05.3h.18l-.05.4c.13.01.4.07.81.19.03,0,.11,0,.27,0,.09,0,.25-.03.46-.09l.52-.05c.27-.1.42-.16.47-.16.07,0,.15,0,.25.02-.01.15-.03.25-.05.31-.02.08-.18.21-.49.4-.07.04-.12.08-.16.12-.08.09-.12.14-.12.14-.03.02-.09.03-.19.03-.08,0-.14-.01-.17-.03l-.32-.17-.2-.05-.23-.17-.4.3-.34-.05s-.08.03-.16.08c.04.25.06.46.06.63,0,.08,0,.21,0,.37-.19.03-.29.11-.29.23,0,.05.01.1.03.17.11.01.21.03.29.05l-.02.98c-.08-.02-.14-.03-.2-.03-.09,0-.14.04-.14.12,0,.06.02.14.07.23.07-.05.14-.07.19-.07.08,0,.12.05.12.15l-.02.31v.02c.01.21.02.37.02.46.01.1.04.2.09.3l.09.16s.02.05.02.09c0,.05,0,.11-.02.18.16.09.34.14.54.14.17,0,.33-.04.5-.12.14-.07.21-.11.22-.12l.43-.39c.21-.18.34-.27.39-.27s.11.02.2.07c-.02.1-.03.17-.03.2-.04.27-.07.43-.11.47s-.2.11-.48.2c-.21.11-.54.24-.97.38l-.27.09c-.18.1-.28.15-.3.15-.05,0-.1-.05-.16-.14l-.14-.04-.09.2c-.07.01-.14.02-.19.02-.14,0-.3-.09-.48-.27-.08-.08-.15-.17-.2-.26,0,0-.03-.07-.06-.2-.06-.17-.09-.27-.09-.3,0-.05,0-.12.02-.23.01-.08.02-.26.02-.52,0-.17.05-.3.14-.39-.03-.1-.05-.22-.05-.36-.03-.24-.04-.7-.05-1.37.12-.08.19-.15.19-.23,0-.04,0-.09-.02-.15l-.23-.05-.02-.07h0s0-.09.02-.17c.03-.14.05-.37.05-.7-.21-.05-.37-.07-.47-.07-.03,0-.17.02-.41.05l-.16.02c-.15.05-.22.07-.23.07-.07,0-.11-.03-.11-.1,0-.1.11-.22.33-.34Z"/>
    <path class="cls-3" d="m150.7,108.05c0-.07.08-.17.23-.3.34-.27.64-.44.89-.52l.23.24c-.05.13-.09.31-.12.55-.03.19-.05.31-.05.35v.29l-.13.19c0,.13.06.25.17.38-.03.06-.05.09-.05.1l.02.38v.09s-.02.1-.02.18l-.04,1.49c0,.08.04.26.1.54l.02.33c.03.16.05.25.05.27,0,.11-.05.21-.14.3-.03.03-.12.09-.3.2-.26.2-.41.31-.45.33-.05.02-.1.03-.14.03-.06,0-.12-.03-.19-.09.02-.13.03-.22.04-.26,0-.06.03-.18.09-.34v-.38s.06-.77.06-.77v-.14c0-.08.04-.12.12-.12.02,0,.05,0,.08,0,.03-.08.04-.14.04-.17,0-.04-.02-.12-.05-.24-.02-.05-.03-.12-.05-.22l-.13-.1c.02-.11.02-.2.02-.26,0-.03,0-.07,0-.12v-.11c0-.07.03-.14.08-.23-.05-.06-.08-.13-.08-.2v-.12l-.02-.18c.34-.06.51-.12.51-.16,0,0,0-.01-.02-.02-.08-.07-.17-.1-.29-.1-.08,0-.18,0-.3.02.02-.08.02-.13.02-.16,0-.01-.02-.27-.06-.77,0-.06-.05-.12-.15-.17Zm.14-3.15h0c-.01-.19.12-.39.4-.6.06-.05.13-.11.2-.2,0,0,.06-.05.16-.12.19-.29.31-.45.36-.48.08-.06.14-.09.2-.09.02,0,.08.04.18.12.1.07.15.16.15.27,0,.08-.05.16-.14.22-.24.17-.47.36-.69.56l-.22.14-.27.19c-.15.08-.23.12-.25.12-.05,0-.07-.04-.07-.12Z"/>
    <path class="cls-3" d="m154.42,109.56l.25-.02c0-.14,0-.23.03-.27.02-.05.11-.16.28-.35l.22-.21.09-.1c.2-.14.35-.26.46-.37.1-.1.21-.16.33-.18.12-.15.21-.22.26-.23l.5-.1s.1-.05.21-.13c.1-.08.18-.12.23-.12l.41.02h.3s.1.04.2.1c.11-.01.2-.02.27-.02.03,0,.12.01.27.03.11.02.18.03.19.03.05.02.12.07.21.15.12-.02.23-.08.33-.2.05.02.09.02.1.02s.17-.05.45-.14c.17-.06.33-.11.47-.16.04.14.05.25.05.34s0,.19-.02.3c-.01.11-.03.31-.05.59-.03.14-.04.22-.04.23,0,.04,0,.14.02.28v.06s-.02.09-.05.13h-.07c-.06,0-.09.03-.09.1,0,.09.08.18.24.29l.02.08v1.39s0,.03,0,.04c0,.02,0,.03,0,.04,0,.04-.06.06-.17.06,0,.11.04.22.11.31h.05l.02.02c-.02.07-.02.12-.02.17,0,.03.03.13.1.3-.07.19-.1.32-.1.4,0,.2.02.42.05.66.01.08.02.14.02.2,0,.02-.01.1-.04.25v1.56l-.02.02c-.1.02-.16.09-.16.22,0,.08.05.16.14.23-.01.09-.02.17-.02.23,0,.04.03.19.1.45-.03.18-.05.3-.05.34,0,.09,0,.19.02.31.02.21.03.35.04.4,0,.11.03.31.07.58-.05.27-.07.42-.07.45,0,.04.03.18.09.43.02.06.02.16.02.32,0,.13-.03.25-.09.35-.05.08-.19.15-.41.22-.16.05-.29.1-.4.15-.07.04-.13.05-.17.05s-.11-.03-.2-.09c.01-.07.02-.2.02-.4l.17-.32.03-.27s-.01-.09-.04-.21c-.01-.03-.02-.06-.02-.08,0-.03,0-.13.02-.3,0-.06,0-.15,0-.27.11-.11.17-.2.17-.26s-.06-.13-.18-.21v-.94c0-.08.04-.17.09-.25,0-.05-.02-.11-.05-.2-.03-.06-.04-.13-.04-.2l.28-.18c-.02-.06-.04-.11-.07-.16-.11-.19-.17-.32-.17-.39,0-.03,0-.3,0-.83v-.29c0-.08.06-.19.16-.31-.1-.11-.17-.26-.23-.45.22-.02.39-.07.5-.17.02-.02.03-.05.03-.08,0-.14-.11-.2-.33-.2-.16,0-.32.03-.47.1-.16.07-.25.11-.25.11,0,0-.13.02-.36.07l-.16.04-.27-.04-.05.02-.05.02c-.14.12-.24.19-.3.22s-.17.04-.32.04c-.05,0-.31-.01-.79-.04l-.33-.02-.33-.05h-.2s-.62-.3-.62-.3c-.23-.02-.4-.06-.48-.12-.18-.12-.33-.28-.43-.47-.03-.04-.04-.07-.04-.09,0-.02.02-.07.05-.15.02-.04.02-.07.02-.09s0-.07-.02-.12l-.17.09c-.12-.12-.18-.2-.18-.22-.07-.28-.11-.47-.13-.56l.3-.24c-.2-.02-.3-.09-.3-.2,0-.19,0-.32.02-.37.05-.2.22-.52.49-.94Zm.87,2.41c.09.08.24.14.44.19-.5.11-.74.18-.74.23l.06.02c.21.06.45.1.72.12.12-.05.2-.07.23-.06.28.07.42.1.43.1.1.03.2.12.3.26.11-.06.2-.1.26-.12h.63s.21.44.21.44l.17-.1.46-.16.21-.15c.27-.08.42-.13.46-.15.08-.05.19-.15.32-.3l.05-.2s.06,0,.09,0c.04,0,.1-.01.17-.03,0-.03-.05-.13-.12-.29.04-.13.08-.24.12-.34.04-.08.1-.17.2-.25.06-.05.11-.09.17-.14l-.16-.2-.12-.2-.19-.24s-.05-.29-.05-.73c0-.25-.03-.46-.08-.63-.03-.35-.05-.55-.07-.6-.03-.06-.08-.13-.16-.2-.15.03-.38.09-.69.19-.02,0-.05,0-.08,0-.04,0-.14-.01-.31-.03-.1-.01-.18-.05-.24-.12l-.52.04c-.08-.06-.15-.09-.2-.09h-.19c-.14,0-.31.03-.51.09-.07.02-.24.14-.51.37-.21.14-.33.23-.36.26-.37.49-.57.79-.6.89-.02.1-.03.16-.05.17-.02.02-.06.04-.12.05l-.04.12h0s.01.06.04.12c.02.04.03.21.04.49.09.33.15.57.19.71.02.08.05.16.11.25.01.02.02.04.02.09,0,.04,0,.08,0,.13Z"/>
    <path class="cls-3" d="m164.08,110.05l-.23.13c.03.14.05.22.06.27.01.05.02.09.02.1,0,.03-.01.1-.04.2-.03.12-.04.32-.04.61,0,.04.03.13.1.27l-.02.26.02.3c.02.27.11.46.28.57.07.04.33.13.79.27.18.05.32.08.41.08.27,0,.44-.04.52-.11l.32-.3s.09-.06.2-.11c.09.07.17.11.23.11.03,0,.07,0,.1,0,.05-.11.1-.18.13-.22.01-.01.08-.05.22-.13.02-.02.12-.16.29-.42.16-.13.24-.2.24-.21.02-.03.06-.14.12-.31.05-.14.07-.25.08-.33v-.02c-.01-.11-.02-.18-.02-.23v-.02s.02-.12.06-.27l-.12-.07-.05-.11v-1.13c0-.12-.03-.33-.08-.62v-.04c0-.07.05-.15.16-.25-.02-.06-.04-.1-.06-.11l-.1-.04s-.02-.08-.02-.22c0-.02,0-.05.02-.1.02-.09.04-.19.05-.28.09.03.15.05.18.05.05,0,.21-.05.46-.16.07-.03.17-.07.31-.1.09.26.13.43.12.51l-.05.88v.52c-.04.4-.08.64-.1.73l-.16-.05c-.05.11-.08.2-.08.25,0,.03,0,.07,0,.12l.25-.02c.02.09.02.16.02.21v.2s0,.08,0,.08v.37c0,.19-.02.38-.07.58.07.08.12.13.13.16.01.04.02.17.03.39,0,.14.04.25.09.33.04.05.11.1.22.15-.03.08-.07.14-.12.18-.03.02-.17.08-.42.18-.24.14-.38.21-.43.21-.05,0-.1-.03-.15-.09-.07-.09-.1-.2-.1-.34,0-.06,0-.14,0-.23-.1-.02-.18-.03-.26-.03-.04,0-.07,0-.11.02-.01,0-.08.07-.2.19l-.16.07-.26.15-.24.09c-.33.16-.68.25-1.05.27-.18.05-.29.08-.33.08-.03,0-.13-.03-.3-.1-.02,0-.03,0-.05,0-.05,0-.14.04-.28.11l-.23-.27h-.02s-.12.03-.33.09c-.04.01-.07.02-.11.02-.07,0-.23-.07-.48-.2-.11-.06-.2-.16-.28-.29-.11-.2-.16-.38-.16-.54,0-.05.04-.12.11-.22l-.17-.08v-.89c.1-.1.16-.19.16-.26,0-.02-.04-.11-.12-.26v-.54l-.02-.38c0-.06.05-.14.13-.22v-.11l-.2.06c.03-.3.05-.51.05-.65,0-.08,0-.16,0-.23l-.02-.17c0-.15-.02-.23-.03-.27l-.09-.22c.01-.05.09-.1.23-.15.09-.03.27-.09.53-.19l.07-.02c.1-.07.16-.1.2-.1.06,0,.1.02.14.05.02.03.06.13.12.3,0,.01-.02.07-.06.18-.04.12-.06.32-.06.61,0,.05.02.17.05.35-.09.3-.13.48-.13.55,0,.16.06.36.18.62Z"/>
    <path class="cls-3" d="m175.59,107.62l.25-.16c.08.09.13.15.16.18.01.01.07.04.16.08.05.03.28.25.67.66.12.13.21.25.26.37.04.1.09.22.13.36.03.07.07.17.11.28l-.05.05c-.06-.01-.14-.03-.23-.07l-.3.11-.27-.05-.23.06c-.32-.23-.49-.34-.51-.34-.03,0-.15.11-.37.32-.33-.06-.51-.09-.53-.09-.08,0-.18,0-.3.02l-.04-.03c-.08.01-.31.02-.68.02l-.29.03-.36.03-.37.06h-.33c-.3.09-.51.14-.62.16-.03.18-.05.3-.08.37-.03.08-.09.16-.19.26.17.11.25.2.27.24.05.33.1.56.15.67l.14.08-.04.29.24.06c.05.21.12.36.2.43.08.07.21.11.39.14.03.16.07.26.12.29.04.03.14.05.28.06l.13.2c.06-.01.11-.02.15-.02.03,0,.19.07.47.2.06.03.13.05.2.05.07,0,.2-.03.4-.09l.5-.05.38-.11c.18-.01.3-.03.37-.05.09-.04.25-.13.48-.27.23-.14.36-.24.4-.29.09-.11.18-.23.27-.38.04-.06.11-.09.22-.09.05,0,.11.03.2.1-.04.19-.07.31-.1.37-.22.37-.36.61-.41.73-.07-.03-.12-.05-.17-.05-.03,0-.12.05-.26.16-.09.06-.21.1-.35.11-.32.09-.55.14-.67.16-.21.02-.35.04-.41.05-.16.05-.25.08-.25.08l-.46-.07-.27.05h-.13c-.12.02-.22.03-.29.03s-.26-.02-.57-.05l-.15-.02-.16-.1c-.39-.12-.61-.19-.65-.21-.03-.02-.11-.09-.27-.23-.01-.01-.1-.07-.27-.17-.15-.09-.22-.16-.23-.2l-.14-.25s-.11-.14-.27-.3c.05-.08.08-.15.08-.19,0-.02-.07-.16-.2-.44-.04-.07-.05-.29-.05-.66,0-.11.04-.3.11-.56.06-.2.11-.32.13-.35l.27-.31.17-.37c.18-.17.38-.35.61-.56l.57-.35.58-.4.21-.04.59-.19.38-.03c.31-.11.48-.17.51-.17.29,0,.49.14.59.41Zm-.91,1.17l.13.16c.1-.02.17-.03.21-.04.14-.02.28-.06.42-.11l.45.04s.02-.03.04-.08c0-.03,0-.06,0-.08,0-.05-.03-.1-.09-.17-.01-.01-.04-.04-.08-.09-.12-.17-.2-.25-.23-.23l-.26-.12s-.08-.08-.15-.18c-.15-.02-.41-.03-.77-.03h-.16s-.27.15-.27.15c-.01.01-.15.05-.43.11-.22.08-.41.15-.58.23-.04.03-.14.11-.3.27-.03.03-.09.07-.18.14v.05l.02.02.57.23.17.17.3-.37s.05-.03.09-.03c.02,0,.14.03.38.1h.02c.07,0,.22-.03.45-.08.05-.02.14-.03.25-.04Z"/>
  </g>
  <g>
    <path class="cls-1" d="m96.04,75.25s1.39,5.68-1.03,8.28-2.98,1.69-4.41,2.94"/>
    <path class="cls-2" d="m112.15,65.52s-.51-.2-1.27.16"/>
    <path class="cls-1" d="m96.04,75.25s-13.11,1.05-11.55-14.48c0,0-7.02-4.15-2.58-10.34,3.27-4.56,9.18-3,9.49.94,0,0,11.42-6.5,15.54,2.96,0,0,3.01-1.3,5.21,1.93.69,1.01.74,2.46-.03,2.7-.38.12-.58.53-.55.92.06.64.06,1.51-.21,2.31-.5,1.5-1.63,5.92,2.36,5.92.14,0,.26.07.28.21.04.2-.12.55-.69,1.06-.65.57-1.43,1.02-.39,2.03.21.21-.29.48-.81.81-.31.2-.3.43,0,.66.23.17.35.47-.74.78-1.31.37.6,1.21-.62,2.55-1.69,1.86-4.31-1.6-6.45-.27-.42.26-.72.68-.9,1.14-.43,1.12-1.15,3.74.02,6.64.12.3.41.51.74.54,1.62.13,6.53,1.18,6.59,9.26,0,.55.78.67.96.15,1.16-3.36,2.77-7.95,3.11-8.49.48-.75.66-2.9,3.26-2.9"/>
    <path class="cls-1" d="m116.65,78.21l1.91,5.15s2.14,1.2,5.64,0l1.31-5.74"/>
    <path class="cls-1" d="m121.61,77.92c1.9.38,5.26.45,4.42-2.4-.52-1.79-2.6-4.01-5.12-4.39,0,0,.05,2-1.75,2.44-1.58.39-3.41,1.39-3,3.33.07.35.12.63.24.8.97,1.38,3.62-.1,5.21.22Z"/>
    <path class="cls-1" d="m116.47,94.81s-.32-3.25.58-6.39c.68-2.36,1.43-2.54,2.74-2.48s2.51.03,3.86-.52,3.45-.72,4.56-.45,1.14-1.14-2.62-.83c0,0,3.76-1.85,4.11-1.94s.72-1.58-2.59.29c0,0,2.76-2,2.04-2.24s-3.07,1.79-3.07,1.79c0,0,2.21-1.83,1.66-2.17s-2.01,1.74-2.45,1.84"/>
  </g>
</svg>