<?xml version="1.0" encoding="UTF-8"?>
<svg id="Logo_s" data-name="Logo&amp;apos;s" xmlns="http://www.w3.org/2000/svg" width="74.2mm" height="61.71mm" viewBox="72 37 74.2 61.71">
  <defs>
    <style>
      .cls-1 {
        stroke-width: 1.5px;
      }

      .cls-1, .cls-2 {
        fill: none;
        stroke-linecap: round;
        stroke-linejoin: round;
      }

      .cls-1, .cls-2, .cls-3 {
        stroke: #56423d;
      }

      .cls-3 {
        stroke-miterlimit: 10;
        stroke-width: .5px;
      }

      .cls-3, .cls-4 {
        fill: #56423d;
      }

      .cls-4 {
        stroke-width: 0px;
      }
    </style>
  </defs>
  <g>
    <path class="cls-1" d="m96.04,75.25s1.39,5.68-1.03,8.28-2.98,1.69-4.41,2.94"/>
    <path class="cls-2" d="m112.15,65.52s-.51-.2-1.27.16"/>
    <path class="cls-1" d="m96.04,75.25s-13.11,1.05-11.55-14.48c0,0-7.02-4.15-2.58-10.34,3.27-4.56,9.18-3,9.49.94,0,0,11.42-6.5,15.54,2.96,0,0,3.01-1.3,5.21,1.93.69,1.01.74,2.46-.03,2.7-.38.12-.58.53-.55.92.06.64.06,1.51-.21,2.31-.5,1.5-1.63,5.92,2.36,5.92.14,0,.26.07.28.21.04.2-.12.55-.69,1.06-.65.57-1.43,1.02-.39,2.03.21.21-.29.48-.81.81-.31.2-.3.43,0,.66.23.17.35.47-.74.78-1.31.37.6,1.21-.62,2.55-1.69,1.86-4.31-1.6-6.45-.27-.42.26-.72.68-.9,1.14-.43,1.12-1.15,3.74.02,6.64.12.3.41.51.74.54,1.62.13,6.53,1.18,6.59,9.26,0,.55.78.67.96.15,1.16-3.36,2.77-7.95,3.11-8.49.48-.75.66-2.9,3.26-2.9"/>
    <path class="cls-1" d="m116.65,78.21l1.91,5.15s2.14,1.2,5.64,0l1.31-5.74"/>
    <path class="cls-1" d="m121.61,77.92c1.9.38,5.26.45,4.42-2.4-.52-1.79-2.6-4.01-5.12-4.39,0,0,.05,2-1.75,2.44-1.58.39-3.41,1.39-3,3.33.07.35.12.63.24.8.97,1.38,3.62-.1,5.21.22Z"/>
    <path class="cls-1" d="m116.47,94.81s-.32-3.25.58-6.39c.68-2.36,1.43-2.54,2.74-2.48s2.51.03,3.86-.52,3.45-.72,4.56-.45,1.14-1.14-2.62-.83c0,0,3.76-1.85,4.11-1.94s.72-1.58-2.59.29c0,0,2.76-2,2.04-2.24s-3.07,1.79-3.07,1.79c0,0,2.21-1.83,1.66-2.17s-2.01,1.74-2.45,1.84"/>
  </g>
</svg>